<svg width="128" height="131" viewBox="0 0 128 131" fill="none" xmlns="http://www.w3.org/2000/svg">
<path fill-rule="evenodd" clip-rule="evenodd" d="M37.3186 61.256C38.3286 61.8025 40.1643 64.6973 43.9981 66.4622C44.1971 71.8014 44.1529 78.5658 43.9538 83.9271C43.7326 89.6429 41.543 93.0325 37.2006 94.5906C32.3274 96.3408 11.065 94.7383 3.39021 95.5137C1.04574 95.75 -0.723662 97.7956 0.293746 100.476C1.33327 103.201 3.32385 102.78 6.56039 102.788C12.3552 102.802 18.15 102.802 23.9374 102.795C29.0023 102.788 35.6007 103.349 40.1127 101.702C43.8432 100.343 48.3405 96.6657 49.4464 93.3943C49.8592 93.6011 52.8967 96.3113 53.4054 96.8504L48.2962 101.724C46.4605 103.297 45.0376 104.693 42.2581 105.978C36.8615 108.474 29.9018 107.809 23.6794 107.831C20.2585 107.846 16.8303 107.846 13.4095 107.846C10.7332 107.846 5.57247 107.551 3.1764 107.972C0.337982 108.474 -0.989072 112.181 1.28166 114.278C2.82252 115.704 8.28556 115.113 10.7701 115.12C17.6192 115.128 24.4609 115.12 31.3099 115.135C44.8238 115.157 45.6937 114.175 53.9215 106.857L60.66 100.934C61.4046 100.181 61.3898 100.306 62.105 99.7452L69.8019 93.2171C70.5318 92.3974 70.0526 93.1137 70.4064 92.2275C62.7906 92.8774 57.9395 92.2423 54.4744 87.6342C50.3089 82.0883 51.7908 76.9929 51.5549 69.5712C56.8557 69.4752 58.0869 70.1398 63.3509 68.5373C67.0224 67.4222 69.9788 66.3367 71.3501 63.3754C73.0753 59.6683 68.8361 56.6184 65.7175 58.5237C64.2135 59.4468 63.6311 60.2148 61.5668 60.968C59.8858 61.5809 58.0206 61.9576 56.0669 62.0314C40.9901 62.5853 31.3394 44.2785 41.4693 32.655C43.5188 30.3066 45.6053 28.0248 47.758 26.0309C69.0941 6.2029 62.4146 7.42138 94.5072 7.50261C94.979 7.50261 120.009 7.17768 120.532 7.80538C121.034 8.7654 120.761 11.2762 120.68 12.5611C119.249 12.9968 84.6428 12.539 78.9659 12.7605C71.9399 13.0338 67.7523 15.0941 63.5942 18.4246C63.0929 18.8234 62.6579 19.2295 62.1713 19.6357L59.3329 22.0653C57.792 23.5201 56.8189 24.1182 55.1969 25.8241C54.0394 27.0426 53.2801 27.3527 52.388 28.202C53.081 28.7411 54.7324 28.0764 57.6446 28.4605C59.7531 28.7411 60.8443 29.5755 62.422 29.8414C64.9213 27.1238 70.259 22.7521 74.0411 21.4819C79.482 19.6579 86.6555 20.1379 92.6567 20.1453H122.678C127.153 20.1526 127.787 19.584 127.787 15.0941C127.794 3.07916 129.357 0.014502 122.936 0.0440409L82.9102 0.0588103C76.8869 0.0735798 69.6176 -0.465505 64.3536 1.78684C62.0018 2.79116 59.7753 4.29026 58.1828 5.62689C57.5782 6.12905 57.3866 6.31367 56.9 6.71244L52.9188 10.3827C51.0904 12.4651 49.4464 13.3513 47.6622 15.131C44.5215 18.2548 37.6798 25.0118 35.3427 27.8401C34.775 28.5269 33.9862 29.8857 33.3743 30.8826C30.0345 36.399 29.7543 40.4459 29.747 47.5278C29.7396 54.211 29.8428 60.8942 29.8428 67.5699L29.8207 87.5751C30.1451 90.4552 33.3005 91.8878 35.8809 90.1007C38.0116 88.6312 37.4218 84.7616 37.4144 81.5492C37.4144 77.9972 37.0753 63.2573 37.3038 61.256H37.3186Z" fill="#2674D9"/>
<path fill-rule="evenodd" clip-rule="evenodd" d="M105.75 44.9212C105.728 46.8117 105.374 50.5632 105.817 52.2321C106.974 56.5891 112.939 55.9688 113.609 51.6561C113.926 49.6031 113.219 46.5976 113.838 44.7366L120.82 44.7883L120.776 122.852L96.7411 122.786C97.272 121.796 98.1051 121.538 99.3879 120.208C105.035 114.36 110.402 106.754 112.142 98.4088C112.975 94.4136 114.096 83.9495 113.455 79.9765C113.049 77.4509 109.37 76.1955 107.085 77.8054C103.642 80.235 108.456 89.4733 102.477 102.714C98.6433 111.199 91.0864 118.384 82.6891 122.468C78.3246 124.588 75.5894 126.463 71.7999 128.952C71.5345 129.122 71.3207 129.21 71.0184 129.513C70.4065 130.126 70.8636 129.528 70.4802 130.252C79.3199 130.473 88.5134 130.185 97.4047 130.2C106.134 130.215 115.342 130.473 124.012 130.207C128.944 130.052 127.89 124.824 127.883 120.585L127.89 53.5909C127.824 36.3328 130.035 37.411 117.414 37.4553C108.463 37.4848 99.5058 37.4553 90.5556 37.4848C86.4196 37.4996 81.7602 37.0639 78.1403 38.5335C75.9285 39.427 75.6852 40.0916 74.2107 41.1772C73.3997 41.768 71.247 43.3631 71.4976 44.6997L91.4919 44.7809C91.3371 55.3189 91.4772 65.9899 91.5214 76.5426C91.5509 85.5151 91.6246 94.9306 85.2326 101.798C81.1409 106.2 79.3641 107.654 74.9922 111.339C74.2181 111.989 73.7536 112.624 72.95 113.23L68.6961 116.627C67.922 117.306 67.2806 117.801 66.5212 118.399C64.0588 120.341 62.4663 121.774 59.7606 123.495C58.4778 124.307 52.2922 128.428 51.0905 129.639C50.5892 130.148 51.1274 129.351 50.6555 130.2C53.4423 130.074 56.4429 130.097 59.2298 130.215C63.8744 130.422 67.1626 127.719 70.8046 124.794C72.5519 123.391 73.8716 122.483 75.4198 121.242L84.3111 113.533C90.2312 108.866 96.0776 101.466 97.9134 93.653C99.0782 88.7126 98.8423 83.2996 98.8644 78.123C98.916 67.0828 98.7612 55.8876 98.9824 44.8031L105.758 44.9286L105.75 44.9212Z" fill="#2674D9"/>
<path fill-rule="evenodd" clip-rule="evenodd" d="M7.8801 7.46596L35.6229 7.40688C34.9962 8.27089 33.3743 9.26044 31.9366 10.4568L28.4937 13.5953C24.424 17.3984 19.8973 24.1185 17.8994 29.3469C13.3284 41.2954 14.7365 52.8008 14.766 65.724C14.7734 69.3573 13.8224 75.3463 16.4322 77.1999C18.1353 78.411 19.9637 77.547 21.0106 76.5131C22.4482 75.0953 22.404 73.5297 22.3892 70.9967C22.3376 62.3492 22.0206 53.2069 22.2934 44.6185C22.7873 29.1253 31.5238 20.2563 42.1771 11.4759C46.0993 8.24874 48.6575 7.22226 51.5697 4.52684C53.4497 2.79143 56.6862 1.12248 57.4603 0C40.3708 0.317543 22.7062 -0.0369236 5.49141 0.12554C-1.62307 0.192003 0.559191 2.8505 0.640289 17.4427V77.3107C0.632917 81.1803 -0.391864 88.7201 2.30648 90.5219C4.36341 91.8955 6.47933 90.5367 7.28293 89.1262C8.16026 87.5902 7.79163 84.2597 7.79163 82.3175C7.79163 77.3033 7.78426 72.2964 7.80638 67.2822V22.4422C7.82112 17.6273 7.65893 12.1626 7.86536 7.4438L7.8801 7.46596Z" fill="#2674D9"/>
<path fill-rule="evenodd" clip-rule="evenodd" d="M85.0777 83.92C85.3136 80.9809 85.203 77.7021 85.2546 74.6891C85.3136 71.6614 86.0361 68.4416 84.1856 66.5511C82.1434 64.4687 79.1207 65.3548 78.0074 67.6736C77.0785 69.6232 77.5061 74.1722 77.5135 76.5353C77.543 83.0929 77.4397 87.0511 74.4318 92.0506C72.1242 95.898 65.9607 100.321 62.5767 103.652L57.5855 108.157C56.7524 108.903 56.111 109.626 55.3001 110.343C54.3269 111.199 53.9361 111.827 52.845 112.632L45.2144 118.975C40.7025 123.074 37.724 123 30.2409 122.83C27.8743 122.778 3.6924 122.476 2.26213 122.911C-0.163425 123.65 -0.377228 127.431 1.20049 129.1C2.8888 130.879 15.4147 130.2 18.9167 130.2C37.5175 130.185 43.0912 132.423 55.8383 120.113C57.3865 118.613 58.8831 117.609 60.7336 115.792L73.1268 104.73C73.9747 104.014 74.6677 103.135 75.5008 102.367C81.0449 97.2716 84.3552 92.7374 85.0629 83.9274L85.0777 83.92Z" fill="#E2B93B"/>
<path fill-rule="evenodd" clip-rule="evenodd" d="M65.1868 32.7513C66.3664 34.0288 67.111 34.4645 68.2316 35.8528C69.5587 37.4922 69.3891 38.4596 70.2738 39.8406C70.93 39.1834 71.5198 38.2529 72.1907 37.5661C78.8481 30.6835 88.8083 32.4263 98.4516 32.382C104.409 32.3599 110.395 32.3599 116.359 32.382C118.667 32.3894 123.209 32.7069 125.251 32.3894C127.448 32.0571 128.79 28.9407 127.337 26.7549C125.885 24.5764 123.437 25.1155 120.304 25.1155L93.4456 25.0342C88.3144 25.0047 81.163 24.6871 76.4077 25.9573C72.6994 26.9469 68.0989 29.7604 65.5775 32.286C65.1941 32.67 65.4817 32.2491 65.1868 32.7513Z" fill="#E2B93B"/>
<path fill-rule="evenodd" clip-rule="evenodd" d="M52.9483 32.9284C42.6121 34.11 38.8816 46.8634 47.36 54.3737C49.616 56.3749 52.764 57.5122 56.5977 56.8033C62.739 55.666 67.5312 50.4081 66.4032 42.9717C65.7765 38.8362 63.985 37.6399 61.8765 35.6165C59.9596 33.7703 56.3176 32.5444 52.941 32.9284H52.9483Z" fill="#E2B93B"/>
<path fill-rule="evenodd" clip-rule="evenodd" d="M61.4415 73.8768C52.5649 76.875 57.8437 90.5515 66.1451 87.1767C68.7992 86.0985 72.3823 82.4652 70.5023 78.1451C68.9172 74.5045 65.0098 72.6731 61.4488 73.8768H61.4415Z" fill="#141619"/>
<path fill-rule="evenodd" clip-rule="evenodd" d="M107.542 60.1855C103.974 61.596 102.927 65.1037 103.878 67.9173C104.836 70.7457 107.778 72.8725 111.545 71.6909C118.8 69.4238 115.172 57.1652 107.542 60.1855Z" fill="#141619"/>
<path fill-rule="evenodd" clip-rule="evenodd" d="M68.7256 54.359L76.9459 54.5067C77.4694 56.2938 76.9238 56.4562 77.9855 58.2581C80.4258 62.4009 85.734 59.7794 85.5497 54.9128C85.4317 51.7448 83.6771 50.1128 80.5437 50.0758C77.7496 50.0389 73.4293 49.8617 70.7973 50.1423L68.7256 54.359Z" fill="#141619"/>
<path fill-rule="evenodd" clip-rule="evenodd" d="M17.28 83.2627C12.5984 85.3083 15.4884 93.0992 20.4796 91.0167C22.0574 90.3594 23.5024 88.1662 22.6398 85.7144C22.109 84.2006 19.6613 82.2141 17.28 83.2627Z" fill="#141619"/>
<path fill-rule="evenodd" clip-rule="evenodd" d="M14.6849 14.9909C11.6327 16.2242 13.3504 21.268 16.8893 19.9018C19.7203 18.8088 18.0762 13.6248 14.6849 14.9909Z" fill="#141619"/>
<path fill-rule="evenodd" clip-rule="evenodd" d="M110.093 113.725C111.022 115.97 115.991 115.719 115.01 111.945C114.671 110.653 113.469 110.158 111.766 110.468C110.343 110.727 109.37 111.96 110.093 113.725Z" fill="#141619"/>
</svg>
