<svg width="338" height="64" viewBox="0 0 338 64" fill="none" xmlns="http://www.w3.org/2000/svg">
<path fill-rule="evenodd" clip-rule="evenodd" d="M18.9738 30.4476C19.4596 30.71 20.3451 32.1017 22.1894 32.9502C22.2839 35.5188 22.2654 38.7701 22.167 41.346C22.0619 44.0951 21.0052 45.722 18.9137 46.4721C16.5664 47.314 6.32756 46.5441 2.63286 46.9168C1.50546 47.0305 0.650362 48.0131 1.14196 49.3017C1.64226 50.6122 2.60176 50.4086 4.15806 50.4119C6.94736 50.4185 9.73806 50.4185 12.5275 50.4146C14.9672 50.4113 18.1438 50.6815 20.316 49.8899C22.1108 49.2356 24.2763 47.4686 24.8116 45.8971C25.0105 45.9969 26.4723 47.2981 26.7168 47.5578L24.2572 49.9011C23.373 50.6564 22.6897 51.3272 21.3482 51.945C18.7478 53.1431 15.3988 52.8239 12.4006 52.8352C10.7525 52.8411 9.10366 52.8424 7.45556 52.8411C6.16826 52.8398 3.68026 52.6984 2.52846 52.9006C1.16316 53.1405 0.524162 54.9241 1.61716 55.9331C2.35986 56.6191 4.99066 56.3343 6.18746 56.3362C9.48426 56.3409 12.7812 56.3362 16.0781 56.3422C22.5853 56.3541 23.0056 55.8816 26.9672 52.3614L30.2119 49.5152C30.5707 49.1517 30.5635 49.2132 30.9064 48.9422L34.6117 45.8053C34.9646 45.4101 34.732 45.7544 34.9018 45.3301C31.2355 45.6427 28.8975 45.3387 27.2309 43.1223C25.2253 40.4559 25.939 38.0049 25.8253 34.4397C28.3788 34.3934 28.9702 34.7133 31.5065 33.9441C33.2762 33.4075 34.6976 32.8861 35.3591 31.4633C36.1884 29.6804 34.1498 28.2134 32.6471 29.1312C31.9221 29.574 31.6406 29.9434 30.6487 30.3042C29.8392 30.5996 28.9411 30.78 28.0014 30.8144C20.7416 31.082 16.0946 22.2791 20.9715 16.6925C21.9568 15.5644 22.9646 14.4668 23.9981 13.5079C34.2714 3.9748 31.0551 4.5616 46.5106 4.5993C46.7386 4.6 58.7921 4.444 59.0445 4.744C59.2857 5.2053 59.1555 6.4113 59.1152 7.0318C58.426 7.2406 41.7632 7.0219 39.0287 7.127C35.6439 7.2572 33.629 8.2497 31.6261 9.8502C31.3862 10.0419 31.1754 10.2362 30.9415 10.4324L29.5735 11.6008C28.8321 12.2999 28.3616 12.5881 27.5805 13.4095C27.0234 13.9956 26.656 14.145 26.2284 14.554C26.5635 14.8131 27.3584 14.4926 28.7601 14.6783C29.7764 14.8124 30.3024 15.2149 31.0617 15.3411C32.2644 14.0333 34.8364 11.9338 36.6556 11.3239C39.2771 10.4457 42.73 10.6783 45.6224 10.6809L60.0781 10.6789C62.2337 10.6816 62.5383 10.41 62.5396 8.251C62.5443 2.47342 63.2943 1.00109 60.2049 1.01497L40.9305 1.0229C38.0295 1.02885 34.5304 0.770459 31.9955 1.8529C30.8622 2.33729 29.7896 3.0549 29.0224 3.6986C28.733 3.9411 28.6385 4.0277 28.4065 4.2213L26.4901 5.9857C25.6112 6.9882 24.8176 7.4138 23.9578 8.2682C22.4465 9.769 19.1523 13.0196 18.0249 14.3789C17.7507 14.7093 17.37 15.3609 17.0786 15.8426C15.4708 18.4952 15.336 20.4387 15.332 23.8446C15.3287 27.0576 15.3776 30.2699 15.3789 33.4815L15.3703 43.0985C15.5256 44.4823 17.0442 45.1709 18.2892 44.3125C19.3155 43.6041 19.0294 41.7458 19.0274 40.2015C19.0254 38.4926 18.8622 31.4091 18.9725 30.4463L18.9738 30.4476Z" fill="#2674D9" stroke="#2674D9" stroke-width="0.755788" stroke-miterlimit="22.9256"/>
<path fill-rule="evenodd" clip-rule="evenodd" d="M51.9292 22.5943C51.9193 23.503 51.7481 25.3077 51.9609 26.108C52.5167 28.2008 55.3919 27.9041 55.7131 25.8317C55.8664 24.8438 55.5261 23.4006 55.8221 22.5051L59.1838 22.5296L59.1646 60.0594L47.5895 60.029C47.8446 59.5532 48.2457 59.4289 48.8649 58.7892C51.5856 55.9787 54.1707 52.3197 55.0053 48.3092C55.4052 46.3875 55.9477 41.3572 55.6391 39.4475C55.4428 38.2342 53.6738 37.6295 52.5709 38.4053C50.9122 39.573 53.2323 44.0138 50.3518 50.3815C48.5061 54.4621 44.8656 57.9163 40.822 59.879C38.7205 60.8986 37.4048 61.8006 35.577 62.9948C35.4494 63.078 35.345 63.1197 35.201 63.2644C34.9062 63.5591 35.1263 63.273 34.9413 63.6199C39.1963 63.7263 43.6265 63.5895 47.9061 63.5948C52.1103 63.6007 56.5438 63.7263 60.7202 63.5968C63.0946 63.5234 62.587 61.007 62.5857 58.971L62.5897 26.7629C62.5599 18.4661 63.6226 18.9842 57.5436 19.0041C53.2323 19.0179 48.9204 19.0047 44.6099 19.0199C42.6161 19.0265 40.3753 18.8184 38.6327 19.5228C37.5694 19.9523 37.4511 20.2722 36.7394 20.7936C36.3502 21.0784 35.3133 21.845 35.4336 22.486L45.0612 22.5263C44.9878 27.5928 45.0553 32.7229 45.0744 37.7947C45.0896 42.1099 45.1246 46.6346 42.0452 49.9375C40.0733 52.0521 39.2188 52.7546 37.1147 54.5229C36.7433 54.8355 36.52 55.1415 36.1301 55.4336L34.0802 57.0651C33.7068 57.3909 33.3989 57.6308 33.0315 57.9189C31.844 58.8507 31.0794 59.5426 29.7742 60.368C29.157 60.7592 26.176 62.739 25.5985 63.3212C25.3559 63.5657 25.617 63.1838 25.3903 63.5902C26.7311 63.5287 28.1783 63.5393 29.5198 63.5981C31.7554 63.6966 33.3401 62.3974 35.0939 60.9925C35.9358 60.3177 36.5715 59.8796 37.3176 59.2862L41.5978 55.5783C44.4473 53.3354 47.2644 49.7755 48.1493 46.0214C48.7096 43.6457 48.5966 41.0453 48.6092 38.5553C48.6356 33.2476 48.5583 27.8644 48.6667 22.5362L51.9305 22.595L51.9292 22.5943Z" fill="#2674D9"/>
<path fill-rule="evenodd" clip-rule="evenodd" d="M4.79895 4.58738L18.1589 4.55828C17.8569 4.97458 17.0765 5.44838 16.3852 6.02398L14.7266 7.53338C12.7652 9.36118 10.5871 12.594 9.62505 15.1065C7.42515 20.851 8.10375 26.3815 8.11435 32.5946C8.11765 34.3425 7.66165 37.2204 8.91665 38.1112C9.73865 38.6934 10.6182 38.2778 11.1211 37.7821C11.8136 37.0995 11.7925 36.3468 11.7846 35.1309C11.7594 30.9749 11.6068 26.5791 11.739 22.4496C11.9775 15.002 16.1824 10.7384 21.3157 6.51568C23.2043 4.96268 24.4374 4.46978 25.8404 3.17588C26.7451 2.34187 28.304 1.53963 28.6767 1.00171C20.4487 1.15502 11.9398 0.984529 3.64915 1.06251C0.223447 1.09423 1.27475 2.37359 1.31445 9.38958L1.31505 38.174C1.31115 40.0349 0.818847 43.6595 2.11735 44.5272C3.10725 45.188 4.12695 44.5338 4.51485 43.8558C4.93775 43.1177 4.76195 41.5178 4.76135 40.5834C4.76065 38.174 4.75665 35.7653 4.76725 33.3559L4.76795 11.799C4.77385 9.48408 4.69855 6.85798 4.79765 4.58738H4.79895Z" fill="#2674D9"/>
<path fill-rule="evenodd" clip-rule="evenodd" d="M41.9739 41.3446C42.0882 39.9311 42.0327 38.3537 42.0604 36.9064C42.0882 35.452 42.4384 33.903 41.5463 32.9943C40.5617 31.9919 39.1065 32.4188 38.5733 33.5329C38.1245 34.47 38.3321 36.6573 38.3367 37.7933C38.3492 40.9461 38.3003 42.8473 36.8531 45.252C35.7409 47.101 32.7738 49.2296 31.1455 50.8288L28.7401 52.995C28.341 53.3525 28.0297 53.7027 27.6392 54.0457C27.1707 54.4574 26.983 54.7594 26.4556 55.1447L22.7808 58.1924C20.608 60.1623 19.1746 60.1266 15.5711 60.046C14.4312 60.0202 2.78476 59.8768 2.09806 60.0863C0.931063 60.4419 0.826662 62.2585 1.58796 63.0601C2.39946 63.9152 8.43346 63.5907 10.1186 63.5887C19.0762 63.5815 21.7604 64.6586 27.8989 58.7402C28.6443 58.0212 29.3666 57.5369 30.2567 56.6626L36.2253 51.3436C36.635 50.9973 36.9681 50.575 37.3692 50.2069C40.0396 47.7572 41.6329 45.5765 41.9745 41.3432L41.9739 41.3446Z" fill="#E2B93B"/>
<path fill-rule="evenodd" clip-rule="evenodd" d="M32.395 16.7447C32.9613 17.3573 33.3201 17.5667 33.8627 18.2368C34.501 19.0239 34.4198 19.4891 34.8447 20.1559C35.1625 19.8407 35.446 19.392 35.7665 19.0615C38.9735 15.7528 43.7692 16.5887 48.4128 16.5696C51.2828 16.5577 54.1653 16.5577 57.0353 16.5689C58.1468 16.5735 60.3341 16.7235 61.3181 16.5735C62.3774 16.4129 63.0231 14.9142 62.3232 13.8635C61.6247 12.8147 60.4445 13.0764 58.9378 13.0744L46.0041 13.0348C43.5332 13.0209 40.0883 12.8683 37.7986 13.4775C36.013 13.9533 33.7953 15.3061 32.5826 16.5213C32.397 16.707 32.5371 16.5035 32.395 16.7447Z" fill="#E2B93B"/>
<path fill-rule="evenodd" clip-rule="evenodd" d="M26.503 16.8311C21.5263 17.3974 19.7275 23.5306 23.8141 27.142C24.9011 28.1028 26.4177 28.6507 28.2628 28.3103C31.2187 27.7645 33.5296 25.2348 32.9831 21.6597C32.6797 19.6733 31.818 19.0971 30.805 18.1237C29.8825 17.2368 28.1273 16.6467 26.503 16.8311Z" fill="#E2B93B"/>
<path fill-rule="evenodd" clip-rule="evenodd" d="M30.5923 36.5165C26.3187 37.9564 28.8596 44.535 32.8569 42.912C34.133 42.3939 35.8597 40.6454 34.9537 38.571C34.1891 36.8192 32.3091 35.9382 30.5923 36.5165Z" fill="#141619"/>
<path fill-rule="evenodd" clip-rule="evenodd" d="M52.7909 29.9362C51.0714 30.6142 50.5685 32.3013 51.0258 33.6527C51.4864 35.012 52.9039 36.0336 54.7179 35.4686C58.2117 34.3796 56.4652 28.487 52.7909 29.9362Z" fill="#141619"/>
<path fill-rule="evenodd" clip-rule="evenodd" d="M34.1006 27.1322L38.0583 27.2029C38.3095 28.0626 38.0471 28.1406 38.5599 29.0076C39.7355 30.998 42.2916 29.7398 42.2031 27.3998C42.1456 25.8766 41.303 25.0935 39.7937 25.0744C38.4469 25.0572 36.3686 24.9713 35.0985 25.1054L34.1006 27.1322Z" fill="#141619"/>
<path fill-rule="evenodd" clip-rule="evenodd" d="M9.32686 41.0307C7.07406 42.0153 8.46516 45.7609 10.8673 44.7578C11.6279 44.4399 12.3224 43.3879 11.9094 42.2096C11.6543 41.4834 10.4761 40.5278 9.32686 41.0307Z" fill="#141619"/>
<path fill-rule="evenodd" clip-rule="evenodd" d="M8.07526 8.20749C6.60556 8.79899 7.43426 11.2242 9.13786 10.5673C10.4999 10.0426 9.71016 7.54929 8.07526 8.20749Z" fill="#141619"/>
<path fill-rule="evenodd" clip-rule="evenodd" d="M54.0193 55.6735C54.4654 56.7533 56.8595 56.6337 56.387 54.8191C56.2245 54.1959 55.6463 53.9587 54.8248 54.1094C54.1409 54.2349 53.6704 54.8277 54.0193 55.6735Z" fill="#141619"/>
<path d="M83.3026 43.6931L88.9414 41.1886C89.814 42.9497 90.793 44.2324 91.864 45.0366C92.941 45.8408 94.209 46.2433 95.681 46.2433C97.343 46.2433 98.656 45.864 99.62 45.1126C100.584 44.3533 101.062 43.3363 101.062 42.0464C101.062 41.0221 100.705 40.1716 99.992 39.481C99.278 38.7905 97.996 38.1072 96.144 37.4245C95.893 37.3181 95.529 37.1893 95.059 37.0221C91.818 35.8379 89.556 34.8288 88.2812 34.0014C87.021 33.1972 86.0648 32.1723 85.3974 30.9273C84.7293 29.6829 84.3956 28.2707 84.3956 26.6999C84.3956 24.0289 85.3901 21.8653 87.3858 20.1954C89.3743 18.5255 91.978 17.6909 95.195 17.6909C98.003 17.6909 100.349 18.2982 102.224 19.5121C104.099 20.7267 105.472 22.5327 106.345 24.9164L100.705 26.9808C100.007 25.5005 99.188 24.4306 98.239 23.7553C97.29 23.0799 96.114 22.7462 94.725 22.7462C93.374 22.7462 92.304 23.0574 91.53 23.6872C90.748 24.317 90.361 25.1747 90.361 26.2605C90.361 27.9304 92.266 29.5164 96.076 31.0112C97.253 31.4744 98.171 31.8465 98.839 32.1273C102.026 33.4781 104.197 34.8519 105.35 36.2634C106.497 37.675 107.074 39.5114 107.074 41.7807C107.074 44.8397 106.072 47.2378 104.068 48.991C102.072 50.7442 99.317 51.6171 95.826 51.6171C92.782 51.6171 90.21 50.949 88.0923 49.6135C85.9822 48.2773 84.3877 46.3041 83.3026 43.6931Z" fill="#141619"/>
<path d="M118.368 51.1611V23.5193H109.67V18.0549H133.349V23.5193H124.651V51.1611H118.368Z" fill="#141619"/>
<path d="M137.949 38.9953V18.0549H144.188V39.2609C144.188 41.7199 144.682 43.5035 145.676 44.5965C146.67 45.6967 148.271 46.2433 150.473 46.2433C152.818 46.2433 154.488 45.7119 155.482 44.6573C156.483 43.5947 156.984 41.7959 156.984 39.2609V18.0549H163.041V39.9971C163.041 43.7612 161.956 46.653 159.785 48.6725C157.606 50.6992 154.51 51.7083 150.472 51.7083C146.26 51.7083 143.118 50.6609 141.053 48.5661C138.981 46.4633 137.949 43.2761 137.949 38.9953Z" fill="#141619"/>
<path d="M176.695 45.6967H180.102C183.518 45.6967 185.977 44.8165 187.495 43.0633C189.005 41.3022 189.764 38.4488 189.764 34.4871C189.764 30.7376 188.974 27.9753 187.404 26.2142C185.833 24.4458 183.366 23.5656 180.012 23.5656H176.695V45.6967ZM170.456 51.1611V18.0549H180.565C185.681 18.0549 189.551 19.444 192.17 22.2142C194.788 24.9844 196.094 29.0756 196.094 34.4871C196.094 40.0275 194.781 44.1947 192.148 46.9801C189.514 49.7655 185.575 51.1618 180.323 51.1618L170.456 51.1611Z" fill="#141619"/>
<path d="M202.287 51.1611V18.0549H208.571V51.1611H202.287Z" fill="#141619"/>
<path d="M220.92 34.6843C220.92 38.4338 221.55 41.2721 222.81 43.2076C224.07 45.1432 225.914 46.1067 228.343 46.1067C230.772 46.1067 232.616 45.1425 233.876 43.2076C235.136 41.2721 235.766 38.4338 235.766 34.6843C235.766 30.9122 235.136 28.0436 233.876 26.0849C232.616 24.1341 230.772 23.1554 228.343 23.1554C225.915 23.1554 224.07 24.1341 222.81 26.0849C221.55 28.0429 220.92 30.9116 220.92 34.6843ZM214.59 34.6763C214.59 29.3256 215.805 25.1511 218.233 22.1457C220.67 19.1475 224.032 17.6448 228.335 17.6448C232.631 17.6448 236.001 19.1475 238.437 22.1457C240.874 25.1511 242.096 29.3256 242.096 34.6763C242.096 39.9973 240.874 44.1638 238.43 47.1845C235.979 50.1972 232.616 51.7079 228.335 51.7079C224.062 51.7079 220.707 50.1972 218.256 47.1845C215.812 44.1638 214.59 39.9973 214.59 34.6763Z" fill="#141619"/>
<path d="M293.888 51.1611V23.5193H285.19V18.0549H308.871V23.5193H300.172V51.1611H293.888Z" fill="#141619"/>
<path d="M258.823 43.6931L264.462 41.1886C265.335 42.9497 266.314 44.2324 267.384 45.0366C268.462 45.8408 269.73 46.2433 271.202 46.2433C272.864 46.2433 274.177 45.864 275.141 45.1126C276.105 44.3533 276.583 43.3363 276.583 42.0464C276.583 41.0221 276.226 40.1716 275.513 39.481C274.799 38.7905 273.517 38.1072 271.665 37.4245C271.414 37.3181 271.05 37.1893 270.58 37.0221C267.339 35.8379 265.077 34.8288 263.802 34.0014C262.542 33.1972 261.586 32.1723 260.918 30.9273C260.25 29.6829 259.916 28.2707 259.916 26.6999C259.916 24.0289 260.911 21.8653 262.907 20.1954C264.895 18.5255 267.499 17.6909 270.716 17.6909C273.524 17.6909 275.87 18.2982 277.745 19.5121C279.62 20.7267 280.993 22.5327 281.866 24.9164L276.226 26.9808C275.528 25.5005 274.708 24.4306 273.76 23.7553C272.811 23.0799 271.635 22.7462 270.246 22.7462C268.895 22.7462 267.825 23.0574 267.051 23.6872C266.269 24.317 265.882 25.1747 265.882 26.2605C265.882 27.9304 267.787 29.5164 271.597 31.0112C272.774 31.4744 273.692 31.8465 274.36 32.1273C277.547 33.4781 279.718 34.8519 280.871 36.2634C282.018 37.675 282.595 39.5114 282.595 41.7807C282.595 44.8397 281.593 47.2378 279.589 48.991C277.593 50.7442 274.838 51.6171 271.347 51.6171C268.303 51.6171 265.73 50.949 263.613 49.6135C261.503 48.2773 259.908 46.3041 258.823 43.6931Z" fill="#2674D9"/>
<path d="M333.143 51.1614L332.809 47.6927C331.777 49.0665 330.547 50.0756 329.12 50.7285C327.701 51.3808 326.016 51.7079 324.073 51.7079C320.134 51.7079 317.045 50.1668 314.813 47.086C312.582 43.9967 311.466 39.7237 311.466 34.2514C311.466 29.0216 312.673 24.9463 315.079 22.0241C317.485 19.1026 320.847 17.6448 325.159 17.6448C328.126 17.6448 330.601 18.3658 332.597 19.8004C334.593 21.2423 336.005 23.322 336.832 26.0393L331.193 27.4356C330.525 25.8794 329.69 24.7262 328.68 23.9669C327.671 23.2156 326.456 22.8363 325.037 22.8363C322.669 22.8363 320.871 23.8308 319.641 25.8265C318.412 27.8229 317.796 30.7603 317.796 34.6387C317.796 38.373 318.404 41.2417 319.626 43.2453C320.847 45.241 322.593 46.2435 324.863 46.2435C326.638 46.2435 328.103 45.6514 329.272 44.4678C330.434 43.2764 331.147 41.6368 331.413 39.5493H325.219V34.3578H337.56V51.1614H333.143Z" fill="#E2B93B"/>
</svg>
